<?xml version="1.0" encoding="utf-8"?>
<!-- Generator: Adobe Illustrator 26.3.1, SVG Export Plug-In . SVG Version: 6.00 Build 0)  -->
<svg version="1.1" id="Layer_1" xmlns="http://www.w3.org/2000/svg" xmlns:xlink="http://www.w3.org/1999/xlink" x="0px" y="0px"
	 viewBox="0 0 31 30" style="enable-background:new 0 0 31 30;" xml:space="preserve">
<style type="text/css">
	.st0{fill:#E01F26;}
	.st1{fill:#FFFFFF;}
	.st2{fill:#031059;}
	.st3{fill-rule:evenodd;clip-rule:evenodd;fill:#FFFFFF;}
	.st4{fill-rule:evenodd;clip-rule:evenodd;fill:#E01F26;}
	.st5{fill:#9D9D9D;}
	.st6{fill:#35E01F;}
	.st7{fill:#298CFF;}
	.st8{fill:none;stroke:#031059;stroke-width:2;stroke-linecap:round;stroke-linejoin:round;}
	.st9{fill:none;stroke:#FFFFFF;stroke-width:2;stroke-linecap:round;stroke-linejoin:round;}
	.st10{fill-rule:evenodd;clip-rule:evenodd;fill:#091432;}
	.st11{fill-rule:evenodd;clip-rule:evenodd;fill:#101742;}
	.st12{fill-rule:evenodd;clip-rule:evenodd;fill:#DF1F26;}
	.st13{fill:none;}
	.st14{enable-background:new    ;}
	.st15{fill:#BBB8C9;}
	.st16{fill:#BBB8C9;enable-background:new    ;}
	.st17{clip-path:url(#XMLID_00000026138311822072839270000001349253401641787800_);fill:#031059;}
	.st18{fill:#FFFFFF;stroke:#031059;stroke-width:0.3147;stroke-linecap:round;stroke-linejoin:round;stroke-miterlimit:10;}
	.st19{fill:#FFFFFF;stroke:#FFFFFF;stroke-width:0.3147;stroke-linecap:round;stroke-linejoin:round;stroke-miterlimit:10;}
	.st20{clip-path:url(#XMLID_00000015350567646432215960000012736157099450269321_);fill:#031059;}
	.st21{opacity:0.3;}
	.st22{fill:#606A74;}
	.st23{opacity:0.3;fill:#7CFFFF;}
	.st24{fill:#5E5E5E;}
	.st25{fill:none;stroke:#5E5E5E;stroke-width:0.4668;stroke-linecap:round;stroke-linejoin:round;stroke-miterlimit:10;}
	.st26{fill:#8F8F8F;}
	.st27{fill:#D9D9D9;}
	.st28{fill:#35407A;}
	.st29{clip-path:url(#XMLID_00000098201712377790848520000003005815847513131153_);fill:#031059;}
	.st30{clip-path:url(#SVGID_00000153700989313216131030000007927819364852534428_);}
	.st31{fill:#B7161C;}
</style>
<g id="Group_5451_00000003801307180426760710000010303267542133980323_" transform="translate(0 0)">
	<g>
		<defs>
			<rect id="SVGID_1_" x="2.4" y="2.6" width="26.3" height="24.7"/>
		</defs>
		<clipPath id="SVGID_00000123407030354426433510000018377876841279096992_">
			<use xlink:href="#SVGID_1_"  style="overflow:visible;"/>
		</clipPath>
		
			<g id="Group_5450_00000046339638245348151850000005298777198614128266_" transform="translate(0 0)" style="clip-path:url(#SVGID_00000123407030354426433510000018377876841279096992_);">
			<path id="Path_4482_00000180340025984785138210000005855406571795070879_" class="st31" d="M28.1,21.6L18.8,4.5
				c-1.1-1.8-3.4-2.4-5.3-1.3c-0.6,0.3-1,0.8-1.3,1.3L2.9,21.6c-1.1,1.8-0.5,4.2,1.3,5.3c0.6,0.4,1.3,0.5,2,0.5h18.6
				c2.1,0,3.8-1.7,3.8-3.8C28.6,22.8,28.4,22.2,28.1,21.6 M15.5,24.3c-0.8,0-1.5-0.7-1.5-1.5c0-0.8,0.7-1.5,1.5-1.5
				c0.8,0,1.5,0.7,1.5,1.5c0,0,0,0,0,0C17,23.6,16.3,24.3,15.5,24.3 M17,18.1c0,0.8-0.6,1.6-1.5,1.6c-0.8,0-1.6-0.6-1.6-1.5
				c0,0,0-0.1,0-0.1v-7.7c0-0.8,0.7-1.5,1.6-1.5c0.8,0,1.5,0.7,1.5,1.5V18.1z"/>
		</g>
	</g>
</g>
</svg>
