<?xml version="1.0" encoding="utf-8"?>
<!-- Generator: Adobe Illustrator 24.0.3, SVG Export Plug-In . SVG Version: 6.00 Build 0)  -->
<svg version="1.1" id="Layer_1" xmlns="http://www.w3.org/2000/svg" xmlns:xlink="http://www.w3.org/1999/xlink" x="0px" y="0px"
	 viewBox="0 0 96 111" style="enable-background:new 0 0 96 111;" xml:space="preserve">
<style type="text/css">
	.st0{fill:#FFFFFF;}
	.st1{fill:#031059;}
	.st2{fill:#E01F26;}
	.st3{fill-rule:evenodd;clip-rule:evenodd;fill:#FFFFFF;}
	.st4{fill-rule:evenodd;clip-rule:evenodd;fill:#E01F26;}
	.st5{fill:#9D9D9D;}
	.st6{fill:#35E01F;}
	.st7{fill:#298CFF;}
	.st8{fill:none;stroke:#031059;stroke-width:2;stroke-linecap:round;stroke-linejoin:round;}
	.st9{fill:none;stroke:#FFFFFF;stroke-width:2;stroke-linecap:round;stroke-linejoin:round;}
</style>
<path id="Path_315" class="st1" d="M92.9,9.7C88.8,9.4,83.8,8,78,6.3c-8.3-2.4-18.6-5.4-29.2-5.5h-1.1c-12,0-22.8,3.2-31.4,5.8
	C11.1,8.1,6.6,9.4,3.1,9.7C2,27.2,2.9,42.5,5.5,55.4c6.9,33.2,25.3,46.4,42.5,54.9l0,0l0,0c17.2-8.5,35.6-21.7,42.5-54.9
	C93.1,42.5,94,27.2,92.9,9.7z M89.6,54.9c0,0-0.1,0-0.1,0h-6.1c-0.4,0-0.7,0.3-0.7,0.7s0.3,0.7,0.7,0.7h5.9
	c-1.3,6.5-3.4,12.8-6.2,18.8l-5.1-3c-0.3-0.2-0.8-0.1-1,0.3c0,0,0,0,0,0c-0.2,0.3-0.1,0.8,0.3,1c0,0,0,0,0,0l5.2,3c0,0,0,0,0,0
	c-0.5,1.1-1.1,2.1-1.6,3.1c-2.8,5-6.3,9.7-10.4,13.8l-3-5.2c-0.2-0.3-0.6-0.5-1-0.3c0,0,0,0,0,0c-0.3,0.2-0.5,0.6-0.3,1c0,0,0,0,0,0
	l3.1,5.4c0,0,0.1,0.1,0.1,0.1c-6.1,5.7-13,10.3-20.5,13.9h-0.3v-6.2c0-0.4-0.3-0.7-0.7-0.7c-0.4,0-0.7,0.3-0.7,0.7v6.2H47
	c-7.5-3.5-14.4-8.2-20.5-13.9c0,0,0.1-0.1,0.1-0.1l3.1-5.4c0.2-0.3,0.1-0.8-0.3-1c0,0,0,0,0,0c-0.3-0.2-0.8-0.1-1,0.3c0,0,0,0,0,0
	l-3,5.2c-4.1-4.1-7.6-8.7-10.4-13.8c-0.6-1-1.1-2.1-1.6-3.1c0,0,0,0,0.1,0l5.2-3c0.3-0.2,0.5-0.6,0.3-1c0,0,0,0,0,0
	c-0.2-0.3-0.6-0.5-1-0.3c0,0,0,0,0,0l-5.1,3c-2.8-6-4.8-12.3-6.2-18.8h6c0.4,0,0.7-0.3,0.7-0.7s-0.3-0.7-0.7-0.7H6.5
	c0,0-0.1,0-0.1,0C4.9,47,4.1,39,3.9,31l5.7,3.3c0.1,0.1,0.2,0.1,0.3,0.1c0.3,0,0.5-0.1,0.6-0.4c0.2-0.3,0.1-0.8-0.3-1c0,0,0,0,0,0
	l-6.1-3.5c-0.1-0.1-0.2-0.1-0.4-0.1C3.8,23.9,4,18.1,4.3,11.9L4.4,11l0.9,0c3.1-0.1,7.5-1.4,12.6-2.9l1.6-0.5c0,0.1,0,0.1,0.1,0.2
	l3.1,5.3c0.1,0.2,0.4,0.4,0.6,0.4c0.1,0,0.2,0,0.3-0.1c0.3-0.2,0.5-0.6,0.3-1c0,0,0,0,0,0l-3-5.2C28.3,5.1,37.2,2.8,47,2.6h0.3v6
	c0,0.4,0.3,0.7,0.7,0.7c0.4,0,0.7-0.3,0.7-0.7v-6H49c9.4,0.2,18.5,2.6,26,4.8l-3,5.2c-0.2,0.3-0.1,0.8,0.3,1c0,0,0,0,0,0
	c0.1,0.1,0.2,0.1,0.3,0.1c0.3,0,0.5-0.1,0.6-0.4L76.3,8c0,0,0-0.1,0.1-0.2l0.1,0C82.1,9.5,87,10.9,90.7,11l0.9,0l0.1,0.9
	c0.4,6.2,0.5,12,0.4,17.5c-0.1,0-0.2,0-0.4,0.1L85.7,33c-0.3,0.2-0.5,0.6-0.3,1c0,0,0,0,0,0c0.1,0.2,0.4,0.4,0.6,0.4
	c0.1,0,0.2,0,0.3-0.1l5.7-3.3C91.9,39,91.1,47,89.6,54.9L89.6,54.9z M70.1,55.4c0,0.4-0.3,0.7-0.7,0.7H48.6v2.8
	c0,0.4-0.3,0.7-0.7,0.7c-0.4,0-0.7-0.3-0.7-0.7v-2.8h-3.5c-0.4,0-0.7-0.3-0.7-0.7s0.3-0.7,0.7-0.7h3.5V22.2c0-0.4,0.3-0.7,0.7-0.7
	c0.4,0,0.7,0.3,0.7,0.7v32.5h20.8C69.8,54.7,70.1,55,70.1,55.4L70.1,55.4z"/>
</svg>
