<?xml version="1.0" encoding="utf-8"?>
<!-- Generator: Adobe Illustrator 24.0.3, SVG Export Plug-In . SVG Version: 6.00 Build 0)  -->
<svg version="1.1" id="Layer_1" xmlns="http://www.w3.org/2000/svg" xmlns:xlink="http://www.w3.org/1999/xlink" x="0px" y="0px"
	 viewBox="0 0 96 111" style="enable-background:new 0 0 96 111;" xml:space="preserve">
<style type="text/css">
	.st0{fill:#FFFFFF;}
	.st1{fill:#031059;}
	.st2{fill:#E01F26;}
	.st3{fill-rule:evenodd;clip-rule:evenodd;fill:#FFFFFF;}
	.st4{fill-rule:evenodd;clip-rule:evenodd;fill:#E01F26;}
	.st5{fill:#9D9D9D;}
	.st6{fill:#35E01F;}
	.st7{fill:#298CFF;}
	.st8{fill:none;stroke:#031059;stroke-width:2;stroke-linecap:round;stroke-linejoin:round;}
	.st9{fill:none;stroke:#FFFFFF;stroke-width:2;stroke-linecap:round;stroke-linejoin:round;}
</style>
<path id="Path_316" class="st1" d="M92.9,9.7C88.8,9.4,83.8,8,78,6.3c-8.3-2.4-18.6-5.4-29.2-5.5h-1.1c-12,0-22.8,3.2-31.4,5.8
	C11.1,8.1,6.6,9.4,3.1,9.7C2,27.2,2.9,42.5,5.5,55.4c6.9,33.2,25.3,46.4,42.5,54.9l0,0l0,0c17.2-8.5,35.6-21.7,42.5-54.9
	C93.1,42.5,94,27.2,92.9,9.7z M80.9,79.5C72.2,95.1,59.4,103,49,108.1H47c-10.3-5.1-23.1-13-31.9-28.6C6,63.2,2.5,41.2,4.3,11.9
	L4.4,11l0.9,0c3.1-0.1,7.5-1.4,12.6-2.9c8-2.4,17.9-5.3,29.1-5.5h2c10,0.2,19.6,3,27.4,5.2C82.1,9.5,87,10.9,90.7,11l0.9,0l0.1,0.9
	C93.5,41.2,90,63.2,80.9,79.5L80.9,79.5z M66.8,38.8l1.1-7.7c0.1-0.4-0.2-0.7-0.6-0.8l-7.6-1.5L56.1,22c-0.2-0.3-0.6-0.5-0.9-0.3
	l-7,3.3l-7-3.4c-0.3-0.2-0.7,0-0.9,0.3l-3.7,6.8L28.9,30c-0.4,0.1-0.6,0.4-0.6,0.8l1,7.7L23.9,44c-0.3,0.3-0.3,0.7,0,1l5.3,5.7
	l-1.1,7.7c-0.1,0.4,0.2,0.7,0.6,0.8l6.1,1.2v23.2c0,0.2,0.1,0.5,0.3,0.6c0.2,0.1,0.5,0.1,0.7,0l11.6-5.5l12.2,6
	c0.1,0,0.2,0.1,0.3,0.1c0.1,0,0.3,0,0.4-0.1c0.2-0.1,0.3-0.4,0.3-0.6V60.5l6.4-1.1c0.4-0.1,0.6-0.4,0.6-0.8l-1-7.7l5.4-5.6
	c0.3-0.3,0.3-0.7,0-1L66.8,38.8z M47.7,77.1c-0.2-0.1-0.4-0.1-0.6,0l-10.9,5.2V60.5l0.1,0l3.6,6.9c0.2,0.3,0.6,0.5,0.9,0.3l7-3.3
	l7,3.4c0.1,0,0.2,0.1,0.3,0.1c0.3,0,0.5-0.1,0.6-0.4l3.6-6.5v21.7L47.7,77.1z M65.4,50.2c-0.1,0.2-0.2,0.4-0.2,0.6l0.9,7.4L60,59.2
	c0,0,0,0-0.1,0c-0.1,0-0.2,0-0.3,0.1l-0.8,0.1c-0.2,0-0.4,0.2-0.5,0.4l-3.6,6.5L48.1,63c-0.1,0-0.2-0.1-0.3-0.1
	c-0.1,0-0.2,0-0.3,0.1l-6.7,3.2l-3.5-6.6c-0.1-0.2-0.3-0.3-0.5-0.4l-7.3-1.4l1.1-7.3c0-0.2,0-0.4-0.2-0.6l-5.1-5.4l5.2-5.3
	c0.1-0.2,0.2-0.4,0.2-0.6l-0.9-7.4l7.3-1.3c0.2,0,0.4-0.2,0.5-0.4l3.6-6.5l6.7,3.3c0.2,0.1,0.4,0.1,0.6,0l6.7-3.1l3.5,6.6
	c0.1,0.2,0.3,0.3,0.5,0.4l7.3,1.4l-1.1,7.3c0,0.2,0,0.4,0.2,0.6l5.1,5.4L65.4,50.2z M48,31.4c-7.3,0-13.3,6-13.3,13.3
	C34.7,52,40.7,58,48,58c7.3,0,13.3-6,13.3-13.3C61.3,37.3,55.3,31.4,48,31.4L48,31.4z M48,56.6c-6.6,0-11.9-5.3-11.9-11.9
	c0-6.6,5.3-11.9,11.9-11.9c6.6,0,11.9,5.3,11.9,11.9C59.9,51.3,54.6,56.6,48,56.6L48,56.6z M54.1,40.5c0.3,0.3,0.3,0.7,0,1
	c0,0,0,0,0,0l-7.6,7.2c-0.1,0.1-0.3,0.2-0.5,0.2c-0.2,0-0.4-0.1-0.5-0.2L41.8,45c-0.3-0.3-0.3-0.7,0-1c0,0,0,0,0,0
	c0.3-0.3,0.7-0.3,1,0c0,0,0,0,0,0l3.2,3.2l7.1-6.7C53.4,40.2,53.8,40.3,54.1,40.5C54.1,40.5,54.1,40.5,54.1,40.5L54.1,40.5z"/>
</svg>
