<?xml version="1.0" encoding="utf-8"?>
<!-- Generator: Adobe Illustrator 24.0.3, SVG Export Plug-In . SVG Version: 6.00 Build 0)  -->
<svg version="1.1" id="Layer_1" xmlns="http://www.w3.org/2000/svg" xmlns:xlink="http://www.w3.org/1999/xlink" x="0px" y="0px"
	 viewBox="0 0 96 111" style="enable-background:new 0 0 96 111;" xml:space="preserve">
<style type="text/css">
	.st0{fill:#FFFFFF;}
	.st1{fill:#031059;}
	.st2{fill:#E01F26;}
	.st3{fill-rule:evenodd;clip-rule:evenodd;fill:#FFFFFF;}
	.st4{fill-rule:evenodd;clip-rule:evenodd;fill:#E01F26;}
	.st5{fill:#9D9D9D;}
	.st6{fill:#35E01F;}
	.st7{fill:#298CFF;}
	.st8{fill:none;stroke:#031059;stroke-width:2;stroke-linecap:round;stroke-linejoin:round;}
	.st9{fill:none;stroke:#FFFFFF;stroke-width:2;stroke-linecap:round;stroke-linejoin:round;}
</style>
<path id="Path_320" class="st1" d="M92.9,9.7C88.8,9.4,83.8,8,78,6.3c-8.3-2.4-18.6-5.4-29.2-5.5h-1.1c-12,0-22.8,3.2-31.4,5.8
	C11.1,8.1,6.6,9.4,3.1,9.7C2,27.2,2.9,42.5,5.5,55.4c6.9,33.2,25.3,46.4,42.5,54.9l0,0l0,0c17.2-8.5,35.6-21.7,42.5-54.9
	C93.1,42.5,94,27.2,92.9,9.7z M80.9,79.5C72.2,95.1,59.4,103,49,108.1H47c-10.3-5.1-23.1-13-31.9-28.6C6,63.2,2.5,41.2,4.3,11.9
	L4.4,11l0.9,0c3.1-0.1,7.5-1.4,12.6-2.9c8-2.4,17.9-5.3,29.1-5.5h2c10,0.2,19.6,3,27.4,5.2C82.1,9.5,87,10.9,90.7,11l0.9,0l0.1,0.9
	C93.5,41.2,90,63.2,80.9,79.5L80.9,79.5z M24,68.9h18.3v1.9h-7.2v4.7h25.8v-4.7h-7.2v-1.9h18.3V35.4H24L24,68.9z M59.5,72.3v1.9h-23
	v-1.9h7.2v-3.3h8.6v3.3H59.5z M25.4,36.8h45.1v30.7h-6.8v0H36.2v0H25.4L25.4,36.8z M54,52.2L45.6,57v-9.6L54,52.2z"/>
</svg>
