<?xml version="1.0" encoding="utf-8"?>
<!-- Generator: Adobe Illustrator 24.0.3, SVG Export Plug-In . SVG Version: 6.00 Build 0)  -->
<svg version="1.1" id="Layer_1" xmlns="http://www.w3.org/2000/svg" xmlns:xlink="http://www.w3.org/1999/xlink" x="0px" y="0px"
	 viewBox="0 0 96 111" style="enable-background:new 0 0 96 111;" xml:space="preserve">
<style type="text/css">
	.st0{fill:#FFFFFF;}
	.st1{fill:#031059;}
	.st2{fill:#E01F26;}
	.st3{fill-rule:evenodd;clip-rule:evenodd;fill:#FFFFFF;}
	.st4{fill-rule:evenodd;clip-rule:evenodd;fill:#E01F26;}
	.st5{fill:#9D9D9D;}
	.st6{fill:#35E01F;}
	.st7{fill:#298CFF;}
	.st8{fill:none;stroke:#031059;stroke-width:2;stroke-linecap:round;stroke-linejoin:round;}
	.st9{fill:none;stroke:#FFFFFF;stroke-width:2;stroke-linecap:round;stroke-linejoin:round;}
</style>
<path id="Path_319" class="st1" d="M92.9,9.7C88.8,9.4,83.8,8,78,6.3c-8.3-2.4-18.6-5.4-29.2-5.5h-1.1c-12,0-22.8,3.2-31.4,5.8
	C11.1,8.1,6.6,9.4,3.1,9.7C2,27.2,2.9,42.5,5.5,55.4c6.9,33.2,25.3,46.4,42.5,54.9l0,0l0,0c17.2-8.5,35.6-21.7,42.5-54.9
	C93.1,42.5,94,27.2,92.9,9.7z M80.9,79.5C72.2,95.1,59.4,103,49,108.1H47c-10.3-5.1-23.1-13-31.9-28.6C6,63.2,2.5,41.2,4.3,11.9
	L4.4,11l0.9,0c3.1-0.1,7.5-1.4,12.6-2.9c8-2.4,17.9-5.3,29.1-5.5h2c10,0.2,19.6,3,27.4,5.2C82.1,9.5,87,10.9,90.7,11l0.9,0l0.1,0.9
	C93.5,41.2,90,63.2,80.9,79.5z M36.8,43.8c0-0.4,0.3-0.7,0.7-0.7l0,0h21.1c0.4,0,0.7,0.3,0.7,0.7c0,0,0,0,0,0c0,0.4-0.3,0.7-0.7,0.7
	l0,0H37.5C37.1,44.5,36.8,44.2,36.8,43.8C36.8,43.8,36.8,43.8,36.8,43.8L36.8,43.8z M73.5,62.9c0,0.4-0.3,0.7-0.7,0.7l0,0H23.2
	c-0.4,0-0.7-0.3-0.7-0.7c0,0,0,0,0,0c0-0.4,0.3-0.7,0.7-0.7l0,0h49.5C73.2,62.2,73.5,62.5,73.5,62.9L73.5,62.9z M67.5,82.1
	c0,0.4-0.3,0.7-0.7,0.7l0,0H29.2c-0.4,0-0.7-0.3-0.7-0.7c0,0,0,0,0,0c0-0.4,0.3-0.7,0.7-0.7l0,0h37.6C67.2,81.4,67.5,81.7,67.5,82.1
	L67.5,82.1z M44.5,23.3l-5.6-4.1h7l2.2-6.6l2.2,6.6h7l-5.6,4.1l2.2,6.6L48,25.8l-5.6,4.1L44.5,23.3z"/>
</svg>
