<?xml version="1.0" encoding="utf-8"?>
<!-- Generator: Adobe Illustrator 24.0.3, SVG Export Plug-In . SVG Version: 6.00 Build 0)  -->
<svg version="1.1" id="Layer_1" xmlns="http://www.w3.org/2000/svg" xmlns:xlink="http://www.w3.org/1999/xlink" x="0px" y="0px"
	 viewBox="0 0 22 22" style="enable-background:new 0 0 22 22;" xml:space="preserve">
<style type="text/css">
	.st0{fill:#FFFFFF;}
	.st1{fill:#031059;}
	.st2{fill:#E01F26;}
	.st3{fill-rule:evenodd;clip-rule:evenodd;fill:#FFFFFF;}
	.st4{fill-rule:evenodd;clip-rule:evenodd;fill:#E01F26;}
	.st5{fill:#9D9D9D;}
	.st6{fill:#35E01F;}
	.st7{fill:#298CFF;}
	.st8{fill:none;stroke:#031059;stroke-width:2;stroke-linecap:round;stroke-linejoin:round;}
	.st9{fill:none;stroke:#FFFFFF;stroke-width:2;stroke-linecap:round;stroke-linejoin:round;}
</style>
<g>
	<path class="st1" d="M11.4,2.1C7.6,2.1,4.2,4.5,3,8C2.9,8.2,3,8.5,3.2,8.5c0.2,0.1,0.4,0,0.5-0.2C4.9,5.1,8,2.9,11.4,2.9
		c4.5,0,8.1,3.6,8.1,8.1s-3.6,8.1-8.1,8.1c-3.4,0-6.5-2.2-7.7-5.4c-0.1-0.2-0.3-0.3-0.5-0.2C3,13.5,2.9,13.8,3,14
		c1.3,3.6,4.6,6,8.4,6c4.9,0,8.9-4,8.9-8.9S16.3,2.1,11.4,2.1z"/>
	<path class="st1" d="M10.7,14c-0.2,0.2-0.2,0.4,0,0.6c0.1,0.1,0.2,0.1,0.3,0.1s0.2,0,0.3-0.1l3.2-3.2c0,0,0.1-0.1,0.1-0.1
		c0,0,0,0,0,0c0,0,0,0,0-0.1c0,0,0,0,0,0c0-0.1,0-0.1,0-0.2c0,0,0,0,0,0c0,0,0,0,0-0.1c0,0,0,0,0,0c0,0,0,0,0,0c0,0,0,0,0,0
		c0,0,0,0,0,0l-3.2-3.2c-0.2-0.2-0.4-0.2-0.6,0c-0.2,0.2-0.2,0.4,0,0.6l2.6,2.6H2.1c-0.2,0-0.4,0.2-0.4,0.4s0.2,0.4,0.4,0.4h11.2
		L10.7,14z"/>
</g>
</svg>
