<?xml version="1.0" encoding="utf-8"?>
<!-- Generator: Adobe Illustrator 24.0.3, SVG Export Plug-In . SVG Version: 6.00 Build 0)  -->
<svg version="1.1" id="Layer_1" xmlns="http://www.w3.org/2000/svg" xmlns:xlink="http://www.w3.org/1999/xlink" x="0px" y="0px"
	 viewBox="0 0 21 18" style="enable-background:new 0 0 21 18;" xml:space="preserve">
<style type="text/css">
	.st0{fill:#FFFFFF;}
	.st1{fill:#031059;}
	.st2{fill:#E01F26;}
	.st3{fill-rule:evenodd;clip-rule:evenodd;fill:#FFFFFF;}
	.st4{fill-rule:evenodd;clip-rule:evenodd;fill:#E01F26;}
	.st5{fill:#9D9D9D;}
	.st6{fill:#35E01F;}
	.st7{fill:#298CFF;}
	.st8{fill:none;stroke:#031059;stroke-width:2;stroke-linecap:round;stroke-linejoin:round;}
	.st9{fill:none;stroke:#FFFFFF;stroke-width:2;stroke-linecap:round;stroke-linejoin:round;}
</style>
<g>
	<path class="st5" d="M20.7,3.6c-0.1-0.1-0.3-0.1-0.4,0l-4.8,2.6V4.7c0-1.2-1-2.2-2.2-2.2h-11c-1.2,0-2.2,1-2.2,2.2v8.7
		c0,1.2,1,2.2,2.2,2.2h11c1.2,0,2.2-1,2.2-2.2v-1.5l4.8,2.6c0.1,0.1,0.3,0.1,0.4,0c0.1-0.1,0.2-0.2,0.2-0.4V4
		C20.9,3.8,20.8,3.7,20.7,3.6L20.7,3.6z M14.6,13.3c0,0.7-0.6,1.3-1.3,1.3h-11c-0.7,0-1.3-0.6-1.3-1.3V4.7c0-0.7,0.6-1.3,1.3-1.3h11
		c0.7,0,1.3,0.6,1.3,1.3L14.6,13.3z M20,13.3l-4.5-2.5V7.2L20,4.7V13.3z M20,13.3"/>
</g>
</svg>
