<?xml version="1.0" encoding="utf-8"?>
<!-- Generator: Adobe Illustrator 24.0.3, SVG Export Plug-In . SVG Version: 6.00 Build 0)  -->
<svg version="1.1" id="Layer_1" xmlns="http://www.w3.org/2000/svg" xmlns:xlink="http://www.w3.org/1999/xlink" x="0px" y="0px"
	 viewBox="0 0 21 18" style="enable-background:new 0 0 21 18;" xml:space="preserve">
<style type="text/css">
	.st0{fill:#FFFFFF;}
	.st1{fill:#031059;}
	.st2{fill:#E01F26;}
	.st3{fill-rule:evenodd;clip-rule:evenodd;fill:#FFFFFF;}
	.st4{fill-rule:evenodd;clip-rule:evenodd;fill:#E01F26;}
	.st5{fill:#9D9D9D;}
	.st6{fill:#35E01F;}
	.st7{fill:#298CFF;}
	.st8{fill:none;stroke:#031059;stroke-width:2;stroke-linecap:round;stroke-linejoin:round;}
	.st9{fill:none;stroke:#FFFFFF;stroke-width:2;stroke-linecap:round;stroke-linejoin:round;}
</style>
<g>
	<path class="st5" d="M7.8,5.2H5c-0.3,0-0.5,0.2-0.5,0.5C4.5,6,4.8,6.2,5,6.2h2.7C8,6.2,8.3,6,8.3,5.7C8.3,5.5,8,5.2,7.8,5.2
		L7.8,5.2z M7.8,5.2"/>
	<path class="st5" d="M7.8,7.9H5c-0.3,0-0.5,0.2-0.5,0.5C4.5,8.7,4.8,9,5,9h2.7C8,9,8.3,8.7,8.3,8.5C8.3,8.2,8,7.9,7.8,7.9L7.8,7.9z
		 M7.8,7.9"/>
	<path class="st5" d="M7.8,10.7H5c-0.3,0-0.5,0.2-0.5,0.5c0,0.3,0.2,0.5,0.5,0.5h2.7c0.3,0,0.5-0.2,0.5-0.5
		C8.3,10.9,8,10.7,7.8,10.7L7.8,10.7z M7.8,10.7"/>
	<path class="st5" d="M15.1,9.6V5c0-0.7-0.3-1.3-0.7-1.8l-2.1-2.1c0,0,0,0,0,0c-0.5-0.5-1.1-0.8-1.8-0.8H3.9C3,0.3,2.4,1,2.4,1.8
		v13.2c0,0.8,0.7,1.5,1.5,1.5h7.9c0.7,0.7,1.7,1.1,2.8,1.1c2.3,0,4.1-1.8,4.1-4C18.6,11.6,17.1,9.9,15.1,9.6L15.1,9.6z M3.4,15.1
		V1.8c0-0.3,0.2-0.5,0.5-0.5h6.6c0.4,0,0.8,0.2,1.1,0.5l2.1,2.1c0,0,0,0,0,0c0.3,0.3,0.4,0.7,0.4,1.1v4.7c-2,0.3-3.5,2-3.5,4
		c0,0.7,0.2,1.3,0.5,1.9H3.9C3.6,15.6,3.4,15.3,3.4,15.1L3.4,15.1z M14.6,16.7c-1.7,0-3-1.4-3-3s1.4-3,3-3c1.7,0,3.1,1.4,3.1,3
		S16.3,16.7,14.6,16.7L14.6,16.7z M14.6,16.7"/>
	<path class="st5" d="M15.7,12.5c-0.2-0.2-0.5-0.2-0.7,0.1l-0.9,1L14,13.2c-0.1-0.3-0.4-0.4-0.7-0.2c-0.3,0.1-0.4,0.4-0.2,0.7
		l0.5,1.1c0.1,0.2,0.2,0.3,0.4,0.3c0,0,0,0,0.1,0c0.2,0,0.3-0.1,0.4-0.2l1.4-1.6C16,13,16,12.6,15.7,12.5L15.7,12.5z M15.7,12.5"/>
	<path class="st5" d="M10.5,6.2H11c0.3,0,0.5-0.2,0.5-0.5c0-0.3-0.2-0.5-0.5-0.5h-0.5c-0.3,0-0.5,0.2-0.5,0.5
		C10,6,10.2,6.2,10.5,6.2L10.5,6.2z M10.5,6.2"/>
	<path class="st5" d="M11.5,8.5c0-0.3-0.2-0.5-0.5-0.5h-0.5c-0.3,0-0.5,0.2-0.5,0.5C10,8.7,10.2,9,10.5,9H11
		C11.3,9,11.5,8.7,11.5,8.5L11.5,8.5z M11.5,8.5"/>
</g>
</svg>
