<?xml version="1.0" encoding="utf-8"?>
<!-- Generator: Adobe Illustrator 24.0.3, SVG Export Plug-In . SVG Version: 6.00 Build 0)  -->
<svg version="1.1" id="Layer_1" xmlns="http://www.w3.org/2000/svg" xmlns:xlink="http://www.w3.org/1999/xlink" x="0px" y="0px"
	 viewBox="0 0 22 22" style="enable-background:new 0 0 22 22;" xml:space="preserve">
<style type="text/css">
	.st0{fill:#FFFFFF;}
	.st1{fill:#031059;}
	.st2{fill:#E01F26;}
	.st3{fill-rule:evenodd;clip-rule:evenodd;fill:#FFFFFF;}
	.st4{fill-rule:evenodd;clip-rule:evenodd;fill:#E01F26;}
	.st5{fill:#9D9D9D;}
	.st6{fill:#35E01F;}
	.st7{fill:#298CFF;}
	.st8{fill:none;stroke:#031059;stroke-width:2;stroke-linecap:round;stroke-linejoin:round;}
	.st9{fill:none;stroke:#FFFFFF;stroke-width:2;stroke-linecap:round;stroke-linejoin:round;}
</style>
<path class="st1" d="M6.2,9c0,0.5-0.4,0.9-0.9,0.9S4.4,9.5,4.4,9c0-0.5,0.4-0.9,0.9-0.9S6.2,8.5,6.2,9z M5.3,11.9
	c-0.5,0-0.9,0.4-0.9,0.9c0,0.5,0.4,0.9,0.9,0.9s0.9-0.4,0.9-0.9C6.2,12.3,5.8,11.9,5.3,11.9z M5.3,15.7c-0.5,0-0.9,0.4-0.9,0.9
	c0,0.5,0.4,0.9,0.9,0.9s0.9-0.4,0.9-0.9C6.2,16.1,5.8,15.7,5.3,15.7z M9.1,11.9c-0.5,0-0.9,0.4-0.9,0.9c0,0.5,0.4,0.9,0.9,0.9
	c0.5,0,0.9-0.4,0.9-0.9C10,12.3,9.6,11.9,9.1,11.9z M9.1,15.7c-0.5,0-0.9,0.4-0.9,0.9c0,0.5,0.4,0.9,0.9,0.9c0.5,0,0.9-0.4,0.9-0.9
	C10,16.1,9.6,15.7,9.1,15.7z M17.2,13.7h-1.2c-0.2,0-0.4-0.1-0.4-0.3l-0.4-1.2c-0.1-0.2-0.2-0.3-0.4-0.3c-0.2,0-0.3,0.1-0.4,0.3
	l-0.4,1.2c-0.1,0.2-0.2,0.3-0.4,0.3h-1.2c-0.4,0-0.6,0.6-0.3,0.8l1,0.7c0.2,0.1,0.2,0.3,0.2,0.5l-0.4,1.2c-0.1,0.4,0.3,0.7,0.7,0.5
	l1-0.7c0.1-0.1,0.2-0.1,0.3-0.1c0.1,0,0.2,0,0.3,0.1l1,0.7c0.3,0.2,0.8-0.1,0.7-0.5l-0.4-1.2c-0.1-0.2,0-0.4,0.2-0.5l1-0.7
	C17.8,14.2,17.6,13.7,17.2,13.7z M9.1,8.1C8.6,8.1,8.2,8.5,8.2,9c0,0.5,0.4,0.9,0.9,0.9C9.6,9.9,10,9.5,10,9C10,8.5,9.6,8.1,9.1,8.1
	z M12.9,9.9c0.5,0,0.9-0.4,0.9-0.9c0-0.5-0.4-0.9-0.9-0.9C12.4,8.1,12,8.5,12,9C12,9.5,12.4,9.9,12.9,9.9z M16.7,9.9
	c0.5,0,0.9-0.4,0.9-0.9c0-0.5-0.4-0.9-0.9-0.9S15.8,8.5,15.8,9C15.8,9.5,16.2,9.9,16.7,9.9z M3.3,21.8c-1.7,0-3.1-1.4-3.1-3.2V5.1
	c0-1.7,1.4-3.1,3.1-3.1h1.4V0.7c0-0.3,0.2-0.5,0.5-0.5c0.3,0,0.5,0.2,0.5,0.5v1.2h4.6V0.7c0-0.3,0.2-0.5,0.5-0.5
	c0.3,0,0.5,0.2,0.5,0.5v1.2h4.7V0.7c0-0.3,0.2-0.5,0.5-0.5c0.3,0,0.5,0.2,0.5,0.5v1.2h1.5c1.7,0,3.1,1.4,3.1,3.1v13.5l0,0.2
	c0,1.7-1.4,3.1-3.1,3.1H3.3z M3.3,3C2.2,3,1.2,3.9,1.2,5.1v13.6c0,1.2,0.9,2.1,2.1,2.1h15.4c1.1,0,2.1-0.9,2.1-2.1V5.1
	c0-1.2-0.9-2.1-2.1-2.1h-1.5v1.2c0,0.3-0.2,0.5-0.5,0.5c-0.3,0-0.5-0.2-0.5-0.5V3h-4.7v1.2c0,0.3-0.2,0.5-0.5,0.5
	c-0.3,0-0.5-0.2-0.5-0.5V3H5.8v1.2c0,0.3-0.2,0.5-0.5,0.5C5,4.7,4.7,4.5,4.7,4.2V3H3.3z"/>
</svg>
