<?xml version="1.0" encoding="utf-8"?>
<!-- Generator: Adobe Illustrator 24.0.3, SVG Export Plug-In . SVG Version: 6.00 Build 0)  -->
<svg version="1.1" id="Layer_1" xmlns="http://www.w3.org/2000/svg" xmlns:xlink="http://www.w3.org/1999/xlink" x="0px" y="0px"
	 viewBox="0 0 22 22" style="enable-background:new 0 0 22 22;" xml:space="preserve">
<style type="text/css">
	.st0{fill:#FFFFFF;}
	.st1{fill:#031059;}
	.st2{fill:#E01F26;}
	.st3{fill-rule:evenodd;clip-rule:evenodd;fill:#FFFFFF;}
	.st4{fill-rule:evenodd;clip-rule:evenodd;fill:#E01F26;}
	.st5{fill:#9D9D9D;}
	.st6{fill:#35E01F;}
	.st7{fill:#298CFF;}
	.st8{fill:none;stroke:#031059;stroke-width:2;stroke-linecap:round;stroke-linejoin:round;}
	.st9{fill:none;stroke:#FFFFFF;stroke-width:2;stroke-linecap:round;stroke-linejoin:round;}
</style>
<path class="st1" d="M15.6,12c0,0.2-0.2,0.4-0.4,0.4H6.4C6.2,12.4,6,12.2,6,12c0-0.2,0.2-0.4,0.4-0.4h8.8
	C15.4,11.6,15.6,11.8,15.6,12z M15.2,14.1H6.4c-0.2,0-0.4,0.2-0.4,0.4c0,0.2,0.2,0.4,0.4,0.4h8.8c0.2,0,0.4-0.2,0.4-0.4
	C15.6,14.3,15.4,14.1,15.2,14.1z M6,6.8c0,0.2,0.2,0.4,0.4,0.4h8.8c0.2,0,0.4-0.2,0.4-0.4c0-0.2-0.2-0.4-0.4-0.4H6.4
	C6.2,6.5,6,6.6,6,6.8z M15.2,9.1H6.4C6.2,9.1,6,9.2,6,9.5c0,0.2,0.2,0.4,0.4,0.4h8.8c0.2,0,0.4-0.2,0.4-0.4
	C15.6,9.2,15.4,9.1,15.2,9.1z M18.4,4.8v15c0,0.7-0.6,1.2-1.2,1.2H4.8c-0.7,0-1.2-0.6-1.2-1.2V2.2C3.6,1.5,4.1,1,4.8,1h10.1
	L18.4,4.8z M15.2,4.5h1.5l-1.5-1.7V4.5z M17.4,5.5h-2.7c-0.3,0-0.5-0.2-0.5-0.5V2H4.8C4.7,2,4.6,2.1,4.6,2.2v17.6
	c0,0.1,0.1,0.2,0.2,0.2h12.4c0.1,0,0.2-0.1,0.2-0.2V5.5z"/>
</svg>
