<?xml version="1.0" encoding="utf-8"?>
<!-- Generator: Adobe Illustrator 24.0.3, SVG Export Plug-In . SVG Version: 6.00 Build 0)  -->
<svg version="1.1" id="Layer_1" xmlns="http://www.w3.org/2000/svg" xmlns:xlink="http://www.w3.org/1999/xlink" x="0px" y="0px"
	 viewBox="0 0 22 22" style="enable-background:new 0 0 22 22;" xml:space="preserve">
<style type="text/css">
	.st0{fill:#FFFFFF;}
	.st1{fill:#031059;}
	.st2{fill:#E01F26;}
	.st3{fill-rule:evenodd;clip-rule:evenodd;fill:#FFFFFF;}
	.st4{fill-rule:evenodd;clip-rule:evenodd;fill:#E01F26;}
	.st5{fill:#9D9D9D;}
	.st6{fill:#35E01F;}
	.st7{fill:#298CFF;}
	.st8{fill:none;stroke:#031059;stroke-width:2;stroke-linecap:round;stroke-linejoin:round;}
	.st9{fill:none;stroke:#FFFFFF;stroke-width:2;stroke-linecap:round;stroke-linejoin:round;}
</style>
<path class="st1" d="M4.5,14h2.3l4.9,3.9C11.8,18,11.9,18,12,18c0.1,0,0.1,0,0.2,0c0.2-0.1,0.3-0.3,0.3-0.5v-13
	c0-0.2-0.1-0.4-0.3-0.5C12,4,11.8,4,11.7,4.1L6.8,8H4.5c-0.6,0-1,0.4-1,1v4C3.5,13.6,3.9,14,4.5,14z M11.5,16.5l-4-3.2V8.7l4-3.2
	V16.5z M4.5,9h2v4h-2V9z M14.3,13.8c0.8-0.7,1.2-1.8,1.2-2.8s-0.4-2.1-1.2-2.8c-0.2-0.2-0.2-0.5,0-0.7c0.2-0.2,0.5-0.2,0.7,0
	c0.9,0.9,1.5,2.2,1.5,3.5S16,13.6,15,14.5c-0.1,0.1-0.2,0.1-0.4,0.1c-0.1,0-0.3,0-0.4-0.1C14.1,14.3,14.1,14,14.3,13.8z M18.5,11
	c0,1.9-0.7,3.6-2.1,4.9c-0.1,0.1-0.2,0.1-0.4,0.1c-0.1,0-0.3,0-0.4-0.1c-0.2-0.2-0.2-0.5,0-0.7c1.1-1.1,1.8-2.6,1.8-4.2
	s-0.6-3.1-1.8-4.2c-0.2-0.2-0.2-0.5,0-0.7c0.2-0.2,0.5-0.2,0.7,0C17.8,7.4,18.5,9.1,18.5,11z"/>
</svg>
