<?xml version="1.0" encoding="utf-8"?>
<!-- Generator: Adobe Illustrator 24.0.3, SVG Export Plug-In . SVG Version: 6.00 Build 0)  -->
<svg version="1.1" id="Layer_1" xmlns="http://www.w3.org/2000/svg" xmlns:xlink="http://www.w3.org/1999/xlink" x="0px" y="0px"
	 viewBox="0 0 21 18" style="enable-background:new 0 0 21 18;" xml:space="preserve">
<style type="text/css">
	.st0{fill:#FFFFFF;}
	.st1{fill:#031059;}
	.st2{fill:#E01F26;}
	.st3{fill-rule:evenodd;clip-rule:evenodd;fill:#FFFFFF;}
	.st4{fill-rule:evenodd;clip-rule:evenodd;fill:#E01F26;}
	.st5{fill:#9D9D9D;}
	.st6{fill:#35E01F;}
	.st7{fill:#298CFF;}
	.st8{fill:none;stroke:#031059;stroke-width:2;stroke-linecap:round;stroke-linejoin:round;}
	.st9{fill:none;stroke:#FFFFFF;stroke-width:2;stroke-linecap:round;stroke-linejoin:round;}
</style>
<path class="st5" d="M4,12h2.3l4.9,3.9c0.1,0.1,0.2,0.1,0.3,0.1c0.1,0,0.1,0,0.2,0c0.2-0.1,0.3-0.3,0.3-0.5v-13
	c0-0.2-0.1-0.4-0.3-0.5C11.5,2,11.3,2,11.2,2.1L6.3,6H4C3.4,6,3,6.4,3,7v4C3,11.6,3.4,12,4,12z M11,14.5l-4-3.2V6.7l4-3.2V14.5z
	 M4,7h2v4H4V7z M13.8,11.8C14.6,11.1,15,10.1,15,9s-0.4-2.1-1.2-2.8c-0.2-0.2-0.2-0.5,0-0.7c0.2-0.2,0.5-0.2,0.7,0
	C15.5,6.4,16,7.7,16,9s-0.5,2.6-1.5,3.5c-0.1,0.1-0.2,0.1-0.4,0.1c-0.1,0-0.3,0-0.4-0.1C13.6,12.3,13.6,12,13.8,11.8z M18,9
	c0,1.9-0.7,3.6-2.1,4.9c-0.1,0.1-0.2,0.1-0.4,0.1c-0.1,0-0.3,0-0.4-0.1c-0.2-0.2-0.2-0.5,0-0.7C16.4,12.1,17,10.6,17,9
	s-0.6-3.1-1.8-4.2c-0.2-0.2-0.2-0.5,0-0.7c0.2-0.2,0.5-0.2,0.7,0C17.3,5.4,18,7.1,18,9z"/>
</svg>
