<?xml version="1.0" encoding="utf-8"?>
<!-- Generator: Adobe Illustrator 24.0.3, SVG Export Plug-In . SVG Version: 6.00 Build 0)  -->
<svg version="1.1" id="Layer_1" xmlns="http://www.w3.org/2000/svg" xmlns:xlink="http://www.w3.org/1999/xlink" x="0px" y="0px"
	 viewBox="0 0 21 18" style="enable-background:new 0 0 21 18;" xml:space="preserve">
<style type="text/css">
	.st0{fill:#FFFFFF;}
	.st1{fill:#031059;}
	.st2{fill:#E01F26;}
	.st3{fill-rule:evenodd;clip-rule:evenodd;fill:#FFFFFF;}
	.st4{fill-rule:evenodd;clip-rule:evenodd;fill:#E01F26;}
	.st5{fill:#9D9D9D;}
	.st6{fill:#35E01F;}
	.st7{fill:#298CFF;}
	.st8{fill:none;stroke:#031059;stroke-width:2;stroke-linecap:round;stroke-linejoin:round;}
	.st9{fill:none;stroke:#FFFFFF;stroke-width:2;stroke-linecap:round;stroke-linejoin:round;}
</style>
<path class="st5" d="M20.5,2.8h-1.4V2.3c0-0.2-0.1-0.4-0.3-0.4c-0.9-0.2-1.9-0.4-2.9-0.4c-1.6,0-3.8,0.4-5.4,2c-1.6-1.7-3.8-2-5.4-2
	c-1,0-2,0.1-2.9,0.4C2,2,1.9,2.1,1.9,2.3v0.5H0.5C0.3,2.8,0.1,3,0.1,3.2v12.9c0,0.2,0.2,0.4,0.4,0.4c0.1,0,0.1,0,0.2-0.1
	c0,0,4.1-2.2,9.7-0.8h0.1h0c0,0,0.1,0,0.1,0c5.6-1.4,9.7,0.8,9.7,0.8c0.1,0.1,0.3,0.1,0.4,0c0.1-0.1,0.2-0.2,0.2-0.3V3.2
	C20.9,3,20.7,2.8,20.5,2.8C20.5,2.8,20.5,2.8,20.5,2.8L20.5,2.8z M0.9,15.4V3.6h1v10.1c0,0.2,0.2,0.4,0.4,0.4c0,0,0,0,0.1,0
	C3.2,14,4,13.9,4.9,13.9c1.2,0,2.3,0.2,3.4,0.5C5.8,14.1,3.2,14.5,0.9,15.4L0.9,15.4z M10.1,14.4c-0.8-0.5-2.5-1.3-5.2-1.3
	c-0.7,0-1.5,0-2.2,0.1V2.6c0.8-0.2,1.6-0.3,2.4-0.3c1.5,0,3.6,0.3,5,2L10.1,14.4z M10.9,4.3c1.4-1.6,3.5-2,5-2
	c0.8,0,1.6,0.1,2.4,0.3v10.6c-0.7-0.1-1.5-0.1-2.2-0.1c-2.7,0-4.4,0.7-5.2,1.3V4.3z M20.1,15.4c-2.3-1-4.9-1.3-7.4-1
	c1.1-0.4,2.3-0.5,3.5-0.5c0.8,0,1.7,0.1,2.5,0.2c0.2,0,0.4-0.1,0.5-0.3c0,0,0,0,0-0.1V3.6h1L20.1,15.4z"/>
</svg>
