<?xml version="1.0" encoding="utf-8"?>
<!-- Generator: Adobe Illustrator 26.3.1, SVG Export Plug-In . SVG Version: 6.00 Build 0)  -->
<svg version="1.1" id="Layer_1" xmlns="http://www.w3.org/2000/svg" xmlns:xlink="http://www.w3.org/1999/xlink" x="0px" y="0px"
	 viewBox="0 0 24 24" style="enable-background:new 0 0 24 24;" xml:space="preserve">
<style type="text/css">
	.st0{fill:#E01F26;}
	.st1{fill:#FFFFFF;}
	.st2{fill:#031059;}
	.st3{fill-rule:evenodd;clip-rule:evenodd;fill:#FFFFFF;}
	.st4{fill-rule:evenodd;clip-rule:evenodd;fill:#E01F26;}
	.st5{fill:#9D9D9D;}
	.st6{fill:#35E01F;}
	.st7{fill:#298CFF;}
	.st8{fill:none;stroke:#031059;stroke-width:2;stroke-linecap:round;stroke-linejoin:round;}
	.st9{fill:none;stroke:#FFFFFF;stroke-width:2;stroke-linecap:round;stroke-linejoin:round;}
	.st10{fill-rule:evenodd;clip-rule:evenodd;fill:#091432;}
	.st11{fill-rule:evenodd;clip-rule:evenodd;fill:#101742;}
	.st12{fill-rule:evenodd;clip-rule:evenodd;fill:#DF1F26;}
	.st13{fill:none;}
</style>
<g>
	<g id="_x30_3_Login">
		<g>
			<path class="st1" d="M19.8,3.8c-2.1-2.1-4.9-3.2-7.8-3.2c-2.1,0-4.2,0.6-6,1.8C4.3,3.5,2.9,5,2,6.9c-0.3,0.5,0,1.2,0.5,1.4
				c0.5,0.3,1.2,0,1.4-0.5c0.7-1.5,1.8-2.8,3.2-3.7c1.4-0.9,3.1-1.4,4.8-1.4c4.9,0,8.9,4,8.9,8.9s-4,8.9-8.9,8.9
				c-1.7,0-3.4-0.5-4.8-1.4c-1.4-0.9-2.5-2.2-3.2-3.7C3.7,15,3,14.7,2.5,15c-0.5,0.3-0.8,0.9-0.5,1.4c0.9,1.9,2.3,3.4,4,4.5
				c1.8,1.1,3.8,1.7,6,1.7c3,0,5.7-1.1,7.8-3.2c2.1-2.1,3.2-4.9,3.2-7.8S21.9,5.9,19.8,3.8L19.8,3.8z"/>
			<path class="st1" d="M6.9,11.7c0,0.6,0.5,1.1,1.1,1.1h6.1l-1.6,1.6c-0.4,0.4-0.4,1.1,0,1.5c0.2,0.2,0.5,0.3,0.8,0.3
				s0.6-0.1,0.8-0.3l2.7-2.7c0.4-0.4,0.6-0.9,0.6-1.5s-0.2-1.1-0.6-1.5l-2.7-2.7C13.7,7,13,7,12.6,7.5c-0.4,0.4-0.4,1.1,0,1.5
				l1.6,1.6H8C7.4,10.6,6.9,11.1,6.9,11.7L6.9,11.7z"/>
		</g>
	</g>
</g>
</svg>
