<?xml version="1.0" encoding="utf-8"?>
<!-- Generator: Adobe Illustrator 26.3.1, SVG Export Plug-In . SVG Version: 6.00 Build 0)  -->
<svg version="1.1" id="Layer_1" xmlns="http://www.w3.org/2000/svg" xmlns:xlink="http://www.w3.org/1999/xlink" x="0px" y="0px"
	 viewBox="0 0 24 25" style="enable-background:new 0 0 24 25;" xml:space="preserve">
<style type="text/css">
	.st0{fill:#E01F26;}
	.st1{fill:#FFFFFF;}
	.st2{fill:#031059;}
	.st3{fill-rule:evenodd;clip-rule:evenodd;fill:#FFFFFF;}
	.st4{fill-rule:evenodd;clip-rule:evenodd;fill:#E01F26;}
	.st5{fill:#9D9D9D;}
	.st6{fill:#35E01F;}
	.st7{fill:#298CFF;}
	.st8{fill:none;stroke:#031059;stroke-width:2;stroke-linecap:round;stroke-linejoin:round;}
	.st9{fill:none;stroke:#FFFFFF;stroke-width:2;stroke-linecap:round;stroke-linejoin:round;}
	.st10{fill-rule:evenodd;clip-rule:evenodd;fill:#091432;}
	.st11{fill-rule:evenodd;clip-rule:evenodd;fill:#101742;}
	.st12{fill-rule:evenodd;clip-rule:evenodd;fill:#DF1F26;}
	.st13{fill:none;}
</style>
<g>
	<path class="st1" d="M14.6,13.4c-0.5,0-0.9,0.4-0.9,0.9v3.5c0,0.5-0.4,0.9-0.9,0.9h-2.6V5.4C10.2,4.7,9.8,4,9,3.8L8.8,3.7h4.1
		c0.5,0,0.9,0.4,0.9,0.9v2.6c0,0.5,0.4,0.9,0.9,0.9s0.9-0.4,0.9-0.9V4.6c0-1.5-1.2-2.6-2.6-2.6H3.4c0,0-0.1,0-0.1,0c0,0-0.1,0-0.1,0
		c-1,0-1.8,0.8-1.8,1.8v15.9c0,0.8,0.5,1.4,1.2,1.7L7.9,23c0.2,0.1,0.4,0.1,0.5,0.1c1,0,1.8-0.8,1.8-1.8v-0.9h2.6
		c1.5,0,2.6-1.2,2.6-2.6v-3.5C15.5,13.8,15.1,13.4,14.6,13.4z"/>
	<path class="st1" d="M22.3,10.1l-3.5-3.5c-0.3-0.3-0.6-0.3-1-0.2c-0.3,0.1-0.5,0.5-0.5,0.8v2.6h-3.5c-0.5,0-0.9,0.4-0.9,0.9
		s0.4,0.9,0.9,0.9h3.5v2.6c0,0.4,0.2,0.7,0.5,0.8c0.3,0.1,0.7,0.1,1-0.2l3.5-3.5C22.7,11,22.7,10.5,22.3,10.1z"/>
</g>
</svg>
