<?xml version="1.0" encoding="utf-8"?>
<!-- Generator: Adobe Illustrator 24.0.3, SVG Export Plug-In . SVG Version: 6.00 Build 0)  -->
<svg version="1.1" id="Layer_1" xmlns="http://www.w3.org/2000/svg" xmlns:xlink="http://www.w3.org/1999/xlink" x="0px" y="0px"
	 viewBox="0 0 208 118" style="enable-background:new 0 0 208 118;" xml:space="preserve">
<style type="text/css">
	.st0{fill:#FFFFFF;}
	.st1{fill:#031059;}
	.st2{fill:#E01F26;}
	.st3{fill-rule:evenodd;clip-rule:evenodd;fill:#FFFFFF;}
	.st4{fill-rule:evenodd;clip-rule:evenodd;fill:#E01F26;}
	.st5{fill:#9D9D9D;}
	.st6{fill:#35E01F;}
	.st7{fill:#298CFF;}
	.st8{fill:none;stroke:#031059;stroke-width:2;stroke-linecap:round;stroke-linejoin:round;}
	.st9{fill:none;stroke:#FFFFFF;stroke-width:2;stroke-linecap:round;stroke-linejoin:round;}
</style>
<path id="Path_326" class="st4" d="M99.8,117.3L99.8,117.3c-18.3-9-37.9-23.1-45.2-58.4c-2.8-13.6-3.7-30-2.6-48.6
	c3.8-0.3,8.6-1.7,14-3.3c9.2-2.7,20.7-6.1,33.5-6.2h1.2C112,0.8,122.9,4,131.8,6.6c6.2,1.8,11.6,3.4,15.9,3.6
	c1.1,18.6,0.2,35-2.6,48.6C137.8,94.2,118.2,108.3,99.8,117.3L99.8,117.3z M101,115c11-5.4,24.6-13.8,34-30.5
	c9.7-17.3,13.4-40.8,11.5-71.9l-0.1-1l-1,0c-3.9-0.1-9.1-1.6-15.2-3.3c-8.3-2.4-18.5-5.4-29.2-5.6h-2.1C86.9,2.9,76.3,6,67.8,8.5
	c-5.4,1.6-10.1,3-13.4,3.1l-1,0l-0.1,1c-2,31.1,1.8,54.7,11.5,71.9c9.3,16.7,23,25.1,34,30.5L101,115z M99.9,28.4
	c-14.6,0-26.5,11.9-26.5,26.5c0,0,0,0,0,0c0,14.6,11.9,26.5,26.5,26.5c14.6,0,26.5-11.9,26.5-26.5c0,0,0,0,0,0
	C126.4,40.3,114.5,28.4,99.9,28.4C99.9,28.4,99.9,28.4,99.9,28.4L99.9,28.4z M112.1,47.8l-16,15.1c-0.1,0.1-0.3,0.2-0.5,0.2
	c-0.2,0-0.4-0.1-0.5-0.2l-7.7-7.7c-0.3-0.3-0.3-0.8,0-1.1c0,0,0,0,0,0c0.3-0.3,0.8-0.3,1.1,0c0,0,0,0,0,0l7.2,7.2l15.5-14.6
	c0.3-0.3,0.8-0.3,1.1,0c0,0,0,0,0,0C112.4,47,112.4,47.5,112.1,47.8C112.1,47.8,112.1,47.8,112.1,47.8L112.1,47.8z M159,17.2
	l20.7-10.4c0.4-0.2,0.5-0.6,0.3-1c-0.2-0.4-0.6-0.5-1-0.3l-20.7,10.4c-0.4,0.2-0.5,0.6-0.3,1c0.1,0.3,0.4,0.4,0.7,0.4
	C158.8,17.3,158.9,17.3,159,17.2L159,17.2z M171.9,27.1l33.6-17.3c0.4-0.2,0.5-0.6,0.3-1c0,0,0,0,0,0c-0.2-0.4-0.6-0.5-1-0.3
	c0,0,0,0,0,0l-33.6,17.3c-0.4,0.2-0.5,0.6-0.3,1c0.1,0.2,0.4,0.4,0.7,0.4C171.7,27.2,171.8,27.2,171.9,27.1L171.9,27.1z M19,89.6
	l20.7-10.4c0.4-0.2,0.5-0.6,0.3-1c-0.2-0.4-0.6-0.5-1-0.3L18.3,88.3c-0.4,0.2-0.5,0.6-0.3,1c0.1,0.3,0.4,0.4,0.7,0.4
	C18.8,89.7,18.9,89.7,19,89.6L19,89.6z M3.2,114.1l33.6-17.3c0.4-0.2,0.5-0.6,0.3-1c0,0,0,0,0,0c-0.2-0.4-0.6-0.5-1-0.3L2.5,112.7
	c-0.4,0.2-0.5,0.6-0.3,1c0,0,0,0,0,0c0.1,0.2,0.4,0.4,0.7,0.4C3,114.1,3.1,114.1,3.2,114.1L3.2,114.1z"/>
</svg>
