<?xml version="1.0" encoding="utf-8"?>
<!-- Generator: Adobe Illustrator 26.3.1, SVG Export Plug-In . SVG Version: 6.00 Build 0)  -->
<svg version="1.1" id="Layer_1" xmlns="http://www.w3.org/2000/svg" xmlns:xlink="http://www.w3.org/1999/xlink" x="0px" y="0px"
	 viewBox="0 0 22 15" style="enable-background:new 0 0 22 15;" xml:space="preserve">
<style type="text/css">
	.st0{fill:#FFFFFF;}
	.st1{fill:#031059;}
	.st2{fill:#E01F26;}
	.st3{fill-rule:evenodd;clip-rule:evenodd;fill:#FFFFFF;}
	.st4{fill-rule:evenodd;clip-rule:evenodd;fill:#E01F26;}
	.st5{fill:#9D9D9D;}
	.st6{fill:#35E01F;}
	.st7{fill:#298CFF;}
	.st8{fill:none;stroke:#031059;stroke-width:2;stroke-linecap:round;stroke-linejoin:round;}
	.st9{fill:none;stroke:#FFFFFF;stroke-width:2;stroke-linecap:round;stroke-linejoin:round;}
	.st10{fill-rule:evenodd;clip-rule:evenodd;fill:#091432;}
	.st11{fill-rule:evenodd;clip-rule:evenodd;fill:#101742;}
	.st12{fill-rule:evenodd;clip-rule:evenodd;fill:#DF1F26;}
</style>
<path id="Path_354" class="st1" d="M21.1,7.8C21.1,7.8,21,7.9,21,8L15.9,13c-0.1,0.1-0.3,0.2-0.4,0.2c-0.2,0-0.3-0.1-0.4-0.2
	c-0.2-0.2-0.3-0.6,0-0.9c0,0,0,0,0,0l4-4H1.5c-0.3,0-0.6-0.3-0.6-0.6c0-0.3,0.3-0.6,0.6-0.6H19l-4-4c-0.2-0.2-0.3-0.6,0-0.9
	c0,0,0,0,0,0c0.2-0.2,0.6-0.3,0.9,0c0,0,0,0,0,0L21,7c0,0,0,0,0,0c0,0,0,0,0.1,0.1c0,0,0,0,0,0.1c0,0,0,0,0,0c0,0,0,0.1,0,0.1
	c0,0,0,0,0,0c0,0.1,0,0.2,0,0.3l0,0C21.1,7.7,21.1,7.7,21.1,7.8L21.1,7.8z"/>
</svg>
